<?xml version="1.0" encoding="UTF-8"?><svg id="Layer_1" data-name="Layer 1" xmlns="http://www.w3.org/2000/svg" xmlns:xlink="http://www.w3.org/1999/xlink" viewBox="0 0 960 540"><defs><style>.cls-1{fill:none;}.cls-2{clip-path:url(#clip-path);}.cls-3{fill:#b78e8f;}.cls-4{fill:#f9bc65;}.cls-5{fill:#874245;}.cls-6{fill:#ffccd1;}.cls-7{fill:#b17a91;}.cls-8{fill:#ef9b71;}.cls-9{fill:#feeed8;}.cls-10{fill:#005776;}.cls-11{fill:#7d2248;}.cls-12{fill:#e55912;}.cls-13{fill:#ea7a41;}.cls-14{clip-path:url(#clip-path-2);}.cls-15{fill:#fcddb2;}.cls-16{clip-path:url(#clip-path-3);}.cls-17{fill:#fbcd8b;}</style><clipPath id="clip-path"><rect class="cls-1" x="0.11" y="-0.54" width="960.64" height="540.67"/></clipPath><clipPath id="clip-path-2"><polygon class="cls-1" points="537.98 182.59 578.2 273.49 1093.84 78.01 998.92 -40.24 537.98 182.59"/></clipPath><clipPath id="clip-path-3"><polygon class="cls-1" points="-51.66 481.03 255.63 325.78 299.07 398.18 63.37 593.65 -51.66 481.03"/></clipPath></defs><g class="cls-2"><path class="cls-3" d="M1036.18-37.42,489.33,217.15a107.51,107.51,0,0,1-26.62,8.39c-28.34,5-91.55,17-96.21,25.42-6,10.86,23.86,7,23.86,7S311.67,274.4,312.6,281.8c.8,6.44,29.76,3.76,41.29,1.34s40-12.33,47.46-9.65-86.07,24.4-87.68,32.71,36.74,0,46.39-2.41,48.27-14.48,51.21-10.46-85.53,24.13-90.09,35.4,52-1.08,52-1.08,52.82-14.74,56-11.26-6.7,13.94-33.79,31.64c0,0-6.7,10.19,7.78,8.58s72.13-50.14,82-54.7S1089.94,55.76,1089.94,55.76Z"/><path class="cls-4" d="M1100.93,517,534.24,310.28a107.49,107.49,0,0,1-24.75-12.88c-23.58-16.51-76.77-52.7-86-50.06-11.94,3.41,11.95,21.8,11.95,21.8s-67.29-44-71.86-38.11c-4,5.12,18.39,23.7,28.25,30.15s37,19.53,40.38,26.73-78.11-43.6-85.13-38.86,26,26,34.51,31.09S425.94,304,425.18,309s-77.55-43.42-88.74-38.68,37.54,36,37.54,36,47.79,26.92,47.6,31.66-14.6,5.12-46.27-1.52c0,0-11.94,2.47-.57,11.57s86.46,15.55,96.7,19.34,601.62,253.5,601.62,253.5Z"/><path class="cls-5" d="M342.89,1005.5l88.57-596.66A107.25,107.25,0,0,1,439.11,382c11.43-26.41,36.19-85.8,31.75-94.32-5.75-11-19,16.08-19,16.08s29.57-74.75,22.89-78c-5.82-2.87-19.52,22.78-23.86,33.73s-11.7,40.15-18.07,44.94,27-85.29,21-91.21-20.23,30.67-23.53,40.05-14.48,48.27-19.46,48.51S437.78,217,430.89,207s-27.74,44-27.74,44-16.77,52.22-21.46,53-7.94-13.28-7.81-45.63c0,0-4.81-11.2-11.44,1.77s2.14,87.82.49,98.61S235.51,999.08,235.51,999.08Z"/><path class="cls-6" d="M-165.76,719.67,328.06,373.29a107,107,0,0,1,24.74-12.93c27-9.89,87.15-32.79,90.28-41.88,4-11.75-24.72-2.68-24.72-2.68s74.59-30,72.38-37.12c-1.92-6.19-30,1.52-40.89,5.91s-37.17,19.14-45,17.82,80.48-39.1,80.6-47.56-36.16,6.43-45.25,10.5-45,22.7-48.59,19.26,80-38.74,82.51-50.62-51,10.16-51,10.16-49.43,23.77-53.2,20.9S374,250.15,397.57,228c0,0,4.82-11.2-9.16-7.08s-62.23,62-71.2,68.22S-235,637.35-235,637.35Z"/><path class="cls-7" d="M-84.94-263.65,282.22,214.93a107.41,107.41,0,0,1,14,24.16c11,26.59,36.48,85.68,45.7,88.42,11.91,3.53,1.63-24.81,1.63-24.81s33.14,73.23,40.16,70.73c6.11-2.18-2.79-29.87-7.65-40.6s-20.71-36.33-19.72-44.24,42.5,78.73,51,78.5-8-35.86-12.42-44.76-24.61-44-21.32-47.73,42.12,78.26,54.1,80.27-12.33-50.55-12.33-50.55S389.44,256,392.14,252.06s15.07,3.52,38.22,26.11c0,0,11.4,4.34,6.69-9.45s-64.6-59.53-71.2-68.23S-5.64-336.35-5.64-336.35Z"/><path class="cls-8" d="M690.92-355.24,415.85,181.58a107.36,107.36,0,0,1-15.85,23c-19.29,21.36-61.77,69.67-60.3,79.17,1.92,12.28,23.12-9.16,23.12-9.16s-52,61.34-46.7,66.61c4.59,4.58,25.79-15.33,33.41-24.32s24-34.27,31.52-36.77S328.12,352.22,332,359.77s29-22.57,35.12-30.4,29.19-41.08,34-39.72-52.67,71.59-49.35,83.28,40.39-32.81,40.39-32.81,32.62-44.09,37.3-43.31,3.27,15.12-7.22,45.72c0,0,1,12.16,11.41,2s26.1-83.88,31.13-93.57,325.86-565.7,325.86-565.7Z"/><polygon class="cls-9" points="496.53 21.52 475.03 51.81 563.96 89.92 572.75 55.72 496.53 21.52"/><polygon class="cls-10" points="542 -114.25 484.08 25.73 574.99 74.8 688.41 -98.96 546.02 -129.53 542 -114.25"/><polygon class="cls-11" points="537.98 182.59 578.2 273.49 1093.84 78.01 998.92 -40.24 537.98 182.59"/><polygon class="cls-10" points="552.46 400.59 517.07 386.91 537.98 311.3 574.99 324.17 552.46 400.59"/><circle class="cls-9" cx="546.03" cy="355.94" r="18.1"/><path class="cls-9" d="M336.07,440.81l95.73,4s-4,123.08-22.53,231.68S279.76,658,279.76,658,308.72,486.66,336.07,440.81Z"/><polygon class="cls-10" points="-51.66 481.03 255.63 325.78 299.07 398.18 63.37 593.65 -51.66 481.03"/><path class="cls-12" d="M61-52.3S150.25,119,220.23,171.33L324,108.58S294.24,27.33,274.93-8.87c0,0-54.7-101.35-81.24-124.68S61-52.3,61-52.3Z"/><path class="cls-13" d="M170.15,117.77l-5.87,11.73s36.65,39.57,45.44,46.9S337.25,106,334.32,100.18L303.53,38.62S272.75,40.08,170.15,117.77Z"/><circle class="cls-9" cx="296.11" cy="64.27" r="9.21"/><g class="cls-14"><polygon class="cls-9" points="536.6 205.72 1055.49 -43.47 1059.89 -31.74 538.06 217.45 536.6 205.72"/><polygon class="cls-9" points="558.58 240.9 1077.48 -8.29 1081.88 3.44 560.05 252.63 558.58 240.9"/><polygon class="cls-9" points="595.23 277.54 1114.12 28.36 1118.52 40.08 596.69 289.27 595.23 277.54"/></g><path class="cls-11" d="M527.8,177.87s7.33,58.63,44,105.54l38.11-11.73L561.51,161.75Z"/><ellipse class="cls-15" cx="329.92" cy="465.17" rx="28.58" ry="30.78"/><ellipse class="cls-15" cx="362.17" cy="466.63" rx="28.58" ry="30.78"/><ellipse class="cls-15" cx="406.14" cy="465.17" rx="28.58" ry="30.78"/><ellipse class="cls-15" cx="435.46" cy="466.63" rx="28.58" ry="30.78"/><g class="cls-16"><circle class="cls-17" cx="231.06" cy="341.55" r="9.25"/><circle class="cls-17" cx="192.62" cy="402.79" r="9.25"/><circle class="cls-17" cx="284.8" cy="412.23" r="9.25"/><circle class="cls-17" cx="21.94" cy="447.9" r="9.25"/><circle class="cls-17" cx="75.68" cy="518.59" r="9.25"/><circle class="cls-17" cx="176.95" cy="458.48" r="9.25"/><circle class="cls-17" cx="137.37" cy="397.98" r="9.25"/><circle class="cls-17" cx="90.28" cy="477.79" r="9.25"/></g></g></svg>